<svg width="40" height="40" viewBox="0 0 40 40" fill="none" xmlns="http://www.w3.org/2000/svg">
<rect width="40" height="40" rx="20" fill="#065E7C"/>
<path fill-rule="evenodd" clip-rule="evenodd" d="M14.5 15V20H16.5V15H14.5ZM18 15V20.5729L20.1761 24.9251C20.3466 24.8633 20.5032 24.7646 20.6339 24.6339C20.8683 24.3995 21 24.0815 21 23.75V22.25C21 21.8358 21.3358 21.5 21.75 21.5H25.6187L25.6206 21.5C25.6554 21.5001 25.6898 21.4927 25.7215 21.4784C25.7532 21.4641 25.7815 21.4432 25.8044 21.4171C25.8273 21.3909 25.8444 21.3602 25.8545 21.3269C25.8646 21.2936 25.8674 21.2585 25.8628 21.2241L25.862 21.218L25.1121 15.2187C25.1045 15.1585 25.0753 15.1031 25.0299 15.0629C24.9848 15.0229 24.9267 15.0006 24.8664 15H18ZM16.7865 21.5H14.25C13.9185 21.5 13.6005 21.3683 13.3661 21.1339C13.1317 20.8995 13 20.5815 13 20.25V14.75C13 14.4185 13.1317 14.1005 13.3661 13.8661C13.6005 13.6317 13.9185 13.5 14.25 13.5H24.8687L24.8722 13.5C25.2971 13.502 25.7067 13.6584 26.0247 13.9402C26.3426 14.2219 26.5473 14.6097 26.6004 15.0313L26.6005 15.032L27.3501 21.0293C27.3824 21.2748 27.3619 21.5244 27.2902 21.7615C27.2181 21.9996 27.0958 22.2196 26.9317 22.4066C26.7676 22.5936 26.5653 22.7433 26.3385 22.8456C26.1121 22.9478 25.8665 23.0004 25.6181 23H22.5V23.75C22.5 24.4793 22.2103 25.1788 21.6945 25.6945C21.1788 26.2103 20.4793 26.5 19.75 26.5C19.4659 26.5 19.2062 26.3395 19.0792 26.0854L16.7865 21.5Z" fill="white"/>
</svg>
