<svg width="40" height="40" viewBox="0 0 40 40" fill="none" xmlns="http://www.w3.org/2000/svg">
<rect width="40" height="40" rx="20" fill="#065E7C"/>
<path fill-rule="evenodd" clip-rule="evenodd" d="M19.0792 13.9146C19.2062 13.6605 19.4659 13.5 19.75 13.5C20.4793 13.5 21.1788 13.7897 21.6945 14.3055C22.2103 14.8212 22.5 15.5207 22.5 16.25V17H25.6179C25.8664 16.9995 26.1121 17.0522 26.3385 17.1544C26.5653 17.2567 26.7676 17.4064 26.9317 17.5934C27.0958 17.7804 27.2181 18.0004 27.2902 18.2385C27.3619 18.4756 27.3824 18.7252 27.3501 18.9707L26.6004 24.9687C26.5473 25.3903 26.3426 25.7781 26.0247 26.0598C25.7067 26.3416 25.2971 26.498 24.8722 26.5L24.8687 26.5H14.25C13.9185 26.5 13.6005 26.3683 13.3661 26.1339C13.1317 25.8995 13 25.5815 13 25.25V19.75C13 19.4185 13.1317 19.1005 13.3661 18.8661C13.6005 18.6317 13.9185 18.5 14.25 18.5H16.7865L19.0792 13.9146ZM16.5 20H14.5V25H16.5V20ZM18 25H24.8664C24.9267 24.9995 24.9847 24.9771 25.0299 24.9371C25.0753 24.8969 25.1045 24.8415 25.1121 24.7813L25.862 18.782L25.8628 18.7759C25.8674 18.7415 25.8646 18.7064 25.8545 18.6731C25.8444 18.6398 25.8273 18.6091 25.8044 18.5829C25.7815 18.5568 25.7532 18.5359 25.7215 18.5216C25.6898 18.5073 25.6554 18.4999 25.6206 18.5L25.6187 18.5H21.75C21.3358 18.5 21 18.1642 21 17.75V16.25C21 15.9185 20.8683 15.6005 20.6339 15.3661C20.5032 15.2354 20.3466 15.1367 20.1761 15.0749L18 19.4271V25Z" fill="white"/>
</svg>
